<?xml version="1.0" encoding="utf-8" ?><svg xmlns="http://www.w3.org/2000/svg" xmlns:xlink="http://www.w3.org/1999/xlink" width="1024" height="1024" viewBox="0 0 1024 1024"><path d="M322.092 412.72C326.925 413.214 338.37 412.963 343.504 412.97L385.223 413.016L522.853 413.041L644.464 412.988L681.255 412.977C687.665 412.972 697.521 413.231 703.552 412.528C665.196 459.27 620.267 490.97 560.745 505.38C544.426 509.33 530.597 509.783 514.855 512.591C518.17 512.842 521.478 513.184 524.775 513.616C539.316 515.487 555.938 517.989 570.041 521.757C620.746 535.302 670.05 569.152 702.051 610.626L701.918 610.891C700.065 612.12 679.798 611.869 676.328 611.878L609.935 611.969L322.037 611.933C324.948 607.587 328.728 603.048 332.221 599.109C376.894 547.856 440.259 516.664 508.122 512.521C498.923 510.892 489.237 510.126 479.879 508.513C456.372 504.398 433.544 497.066 412.037 486.723C383.188 472.866 354.845 450.845 333.611 427.178C330.626 423.85 323.529 416.796 322.092 412.72Z"/><path d="M305.822 313.993C321.865 314.519 340.196 314.1 356.433 314.093L452.07 314.046L719.352 313.976C736.464 338.216 748.019 352.238 760.026 380.961L717.875 381.02L423.276 380.982L321.818 381.014C303.28 381.019 282.678 381.44 264.268 380.747C275.088 357.097 288.303 333.408 305.822 313.993Z"/><path d="M265.634 643.497L637.618 643.382C677.594 643.411 719.647 642.773 759.469 643.522C752.552 659.636 745.803 671.036 736.253 685.742C730.925 693.859 725.748 700.694 719.782 708.346C706.811 707.672 689.668 708.138 676.356 708.144L593.749 708.279C497.024 708.568 400.299 708.301 303.577 707.475C287.124 686.718 275.51 668.063 265.634 643.497Z"/><path d="M335.689 740.482C378.327 741.552 422.733 740.889 465.509 740.884L690.453 741.011C677.312 752.38 663.189 762.562 648.249 771.438C606.76 795.51 570.823 809.534 522.256 811.332C464.308 813.478 412.532 798.113 365.453 764.282C355.108 756.848 345.042 749.255 335.689 740.482Z"/><path d="M502.03 214.25C508.295 213.938 514.571 213.9 520.839 214.136C572.153 216.316 621.748 233.256 663.673 262.924C671.997 268.836 681.152 275.52 688.098 283.011C682.961 282.556 675.805 282.959 670.44 282.965L634.54 282.977L520.375 282.969L402.443 283.074L359.426 283.039C351.027 283.049 341.562 282.866 333.286 283.356C379.598 241.101 439.382 216.617 502.03 214.25Z"/></svg>